:SAMPLES-PER-SECOND 30
:FULLY-SPECIFIED
:DEGREES
475
root  10.9576 32.9735 2.55943 14.3457 -64.6948 -6.95175
RightUpLeg  -11.4308 -12.8026 11.7617
RightLeg  17.0991 -12.0272 -2.84188
RightFoot  -6.14235 0.047552 1.26395
RightToes  -15.7717 -0.0591632 -0.144522
Spine  7.91741 1.4729 -1.34099
Spine1  14.9304 3.87965 -3.71651
HEad  -11.614 -16.4612 25.8919
LeftShoulder1  0 -2.42657e-020 -4.95415e-022
LeftArm  -31.9784 -0.246645 -79.4959
LeftForeArm  40.9482 -31.1005 -6.08851
LeftHand  0.0277345 -5.55283 -0.943019
RightShoulder  0 2.42657e-020 1.07489e-018
RightArm  -29.8835 -1.84707 87.1191
RightForeArm  53.1018 22.4394 4.13947
RightHand  -1.23446 26.0708 -4.95951
LeftUpLeg  -29.7504 -7.87864 6.34206
LeftLeg  32.4592 -2.62551 -1.44531
LeftFoot  -0.0177032 1.10238e-006 0.00712418
LeftToes  -10.993 1.28829e-006 1.15665e-007
476
root  11.2017 33.0904 2.70122 13.6927 -64.3197 -4.81436
RightUpLeg  -12.6332 -13.42 10.886
RightLeg  16.2705 -11.6792 -2.5845
RightFoot  -5.3531 0.0311706 1.04445
RightToes  -16.6416 -0.0617881 -0.149286
Spine  7.7927 0.973291 -1.6329
Spine1  14.6575 2.91718 -4.36887
HEad  -12.6678 -15.4255 26.3282
LeftShoulder1  0 -2.42657e-020 -4.95415e-022
LeftArm  -31.6665 0.208837 -79.3974
LeftForeArm  40.9382 -30.3883 -5.91725
LeftHand  0.0350294 -5.59416 -1.08827
RightShoulder  0 2.42657e-020 1.07489e-018
RightArm  -32.3047 -1.83964 86.7149
RightForeArm  53.898 21.7196 3.98984
RightHand  -1.22783 26.0037 -4.94506
LeftUpLeg  -29.5648 -7.69799 5.20443
LeftLeg  29.0024 -3.25427 -1.54209
LeftFoot  1.51631 0.0020933 -0.0982199
LeftToes  -10.649 1.28829e-006 1.15665e-007
477
root  11.4261 33.2255 2.8183 12.5554 -63.8204 -2.47092
RightUpLeg  -13.5213 -13.6088 9.90352
RightLeg  15.4911 -11.9652 -2.47775
RightFoot  -4.60388 0.0209649 0.899221
RightToes  -16.8113 -0.0647308 -0.150703
Spine  7.76944 0.521417 -1.99616
Spine1  14.6058 2.01932 -5.06927
HEad  -13.5713 -14.9046 26.7031
LeftShoulder1  0 -2.42657e-020 -4.95415e-022
LeftArm  -31.0386 0.427477 -79.1366
LeftForeArm  41.1343 -29.0693 -5.60649
LeftHand  0.0503757 -5.7421 -1.37607
RightShoulder  0 2.42657e-020 1.07489e-018
RightArm  -35.9811 -1.63423 86.6016
RightForeArm  55.2649 20.7665 3.79338
RightHand  -1.30958 25.8203 -5.34003
LeftUpLeg  -29.5539 -7.86076 3.99025
LeftLeg  26.3889 -3.67351 -1.53898
LeftFoot  3.23313 0.0066462 -0.235507
LeftToes  -8.94201 1.28829e-006 1.15665e-007
478
root  11.6066 33.3299 2.95712 11.8231 -63.8976 -0.994141
RightUpLeg  -14.0261 -13.7808 9.09813
RightLeg  14.8808 -11.7494 -2.30445
RightFoot  -3.87837 0.0115753 0.719555
RightToes  -17.4585 -0.0677487 -0.15608
Spine  7.91601 0.376358 -2.28043
Spine1  14.9191 1.71023 -5.52881
HEad  -14.7058 -14.8271 26.6616
LeftShoulder1  0 -2.42657e-020 -4.95415e-022
LeftArm  -30.315 0.388612 -79.0779
LeftForeArm  42.1167 -27.6522 -5.28064
LeftHand  0.0687525 -6.14645 -1.65233
RightShoulder  0 2.42657e-020 1.07489e-018
RightArm  -39.0487 -1.46897 86.1109
RightForeArm  55.923 20.4449 3.72725
RightHand  -1.29923 25.3006 -5.41518
LeftUpLeg  -28.7201 -6.99424 2.90495
LeftLeg  23.4022 -4.63793 -1.663
LeftFoot  4.62114 0.0173324 -0.418718
LeftToes  -7.97369 1.28829e-006 1.15665e-007
479
root  11.7497 33.3788 3.10928 11.2728 -64.2842 -0.0905762
RightUpLeg  -14.4472 -13.8643 8.44135
RightLeg  14.9027 -11.363 -2.23433
RightFoot  -3.59421 0.00783998 0.627545
RightToes  -18.0461 -0.0708363 -0.160929
Spine  8.04258 0.357093 -2.40598
Spine1  15.1764 1.66433 -5.71305
HEad  -15.0994 -14.8598 26.3873
LeftShoulder1  0 -2.42657e-020 -4.95415e-022
LeftArm  -30.6278 0.486349 -79.5064
LeftForeArm  43.7977 -25.913 -4.89171
LeftHand  0.096677 -6.70245 -2.02293
RightShoulder  0 2.42657e-020 1.07489e-018
RightArm  -39.6025 -1.79296 84.9129
RightForeArm  54.4492 20.7387 3.78942
RightHand  -1.27251 25.0796 -5.3479
LeftUpLeg  -27.8664 -6.23729 2.06499
LeftLeg  21.2175 -5.1605 -1.6305
LeftFoot  5.51916 0.0264662 -0.55144
LeftToes  -7.33677 1.28829e-006 1.15665e-007
480
root  11.871 33.421 3.23452 11.0941 -64.5669 0.316193
RightUpLeg  -14.7552 -13.351 8.01531
RightLeg  14.9452 -11.6387 -2.29657
RightFoot  -3.27277 0.0056053 0.57388
RightToes  -18.5199 -0.0734024 -0.164903
Spine  8.08655 0.266091 -2.39093
Spine1  15.3011 1.47481 -5.68572
HEad  -15.2289 -14.4341 25.8588
LeftShoulder1  0 -2.42657e-020 -4.95415e-022
LeftArm  -31.611 1.12093 -80.0641
LeftForeArm  45.3291 -24.5522 -4.59519
LeftHand  0.115955 -6.95069 -2.28138
RightShoulder  0 2.42657e-020 1.07489e-018
RightArm  -39.5783 -2.06902 83.6328
RightForeArm  52.9221 20.8767 3.8203
RightHand  -1.27927 25.0827 -5.3775
LeftUpLeg  -27.0373 -5.32003 1.42703
LeftLeg  19.2164 -5.85788 -1.62733
LeftFoot  6.27281 0.0383796 -0.700417
LeftToes  -6.45984 1.28829e-006 1.15665e-007
